<svg width="20" height="20" viewBox="0 0 20 20" fill="none" xmlns="http://www.w3.org/2000/svg">
<path fill-rule="evenodd" clip-rule="evenodd" d="M1.85742 15.0474V8.21834C1.85742 7.65994 2.11523 7.13282 2.55601 6.78999L8.88934 1.86406C9.54278 1.35583 10.4578 1.35583 11.1112 1.86406L17.4446 6.78999C17.8853 7.13282 18.1431 7.65994 18.1431 8.21834V17.2857C18.1431 18.2851 17.333 19.0952 16.3336 19.0952C16.3336 19.0952 9.69766 19.0952 5.71603 19.0952H3.66695C2.66757 19.0952 1.85742 18.2851 1.85742 17.2857V15.0474Z" stroke="black" stroke-width="1.5" stroke-linecap="round" stroke-linejoin="round"/>
<path fill-rule="evenodd" clip-rule="evenodd" d="M7 19.8477V15.6572C7 14.6578 7.81015 13.8477 8.80952 13.8477H11.1905C12.1898 13.8477 13 14.6578 13 15.6572V19.8477" fill="white"/>
<path d="M7 19.8477V15.6572C7 14.6578 7.81015 13.8477 8.80952 13.8477H11.1905C12.1898 13.8477 13 14.6578 13 15.6572V19.8477" stroke="black" stroke-width="1.52" stroke-linejoin="round"/>
</svg>
